<?xml version="1.0" encoding="UTF-8" standalone="no" ?>
<!DOCTYPE svg PUBLIC "-//W3C//DTD SVG 1.1//EN" "http://www.w3.org/Graphics/SVG/1.1/DTD/svg11.dtd">
<svg xmlns="http://www.w3.org/2000/svg" xmlns:xlink="http://www.w3.org/1999/xlink" version="1.1" width="1080" height="1080" viewBox="0 0 1080 1080" xml:space="preserve">
<desc>Created with Fabric.js 5.2.4</desc>
<defs>
</defs>
<g transform="matrix(1 0 0 1 540 540)" id="70b1af61-086a-453d-8bf7-d62637dc211a"  >
<rect style="stroke: none; stroke-width: 1; stroke-dasharray: none; stroke-linecap: butt; stroke-dashoffset: 0; stroke-linejoin: miter; stroke-miterlimit: 4; fill: rgb(255,255,255); fill-rule: nonzero; opacity: 1; visibility: hidden;" vector-effect="non-scaling-stroke"  x="-540" y="-540" rx="0" ry="0" width="1080" height="1080" />
</g>
<g transform="matrix(1 0 0 1 540 540)" id="9610fd68-9986-46e7-bbd1-31a032bef4cb"  >
</g>
<g transform="matrix(1 0 0 1 540 540)" id="e6246969-e10e-4a53-b11f-ac4be36359ae"  >
<path style="stroke: rgb(0,0,0); stroke-width: 0; stroke-dasharray: none; stroke-linecap: butt; stroke-dashoffset: 0; stroke-linejoin: miter; stroke-miterlimit: 4; fill: rgb(255,255,255); fill-rule: nonzero; opacity: 1;" vector-effect="non-scaling-stroke"  transform=" translate(-320, -256)" d="M 524.531 69.836 C 524.3675701962172 69.51932077382074 524.0967328286745 69.2711713532973 523.7669999999999 69.136 C 485.64377410076554 51.64463609101311 445.4128410415346 39.17192414395305 404.08099999999996 32.029999999999944 C 403.3108194059131 31.88681545080909 402.5356292038378 32.253650127818204 402.158 32.94 C 396.6798038367259 42.88288965681885 391.70681410173347 53.09587528707159 387.2579999999999 63.54000000000008 C 342.7045330398744 56.776817736056856 297.38546696012554 56.776817736056785 252.83199999999994 63.53999999999994 C 248.3537333391323 53.06935494067517 243.30105121340858 42.85382318995519 237.697 32.93999999999982 C 237.3036439643978 32.27006958574651 236.5404072605848 31.90907925286199 235.77300000000005 32.03 C 194.4367907106727 39.15693045089447 154.20324496442674 51.630580123426 116.08499999999992 69.13700000000009 C 115.75869254628155 69.2753349862276 115.48336146918002 69.51153271226902 115.297 69.813 C 39.068 183.651 18.186 294.69 28.43 404.354 C 28.488225195886084 404.89703401668464 28.76427897817291 405.39320911556615 29.195 405.729 C 73.5824403395712 438.59453196912636 123.23032928352927 463.6810447078514 176.02000000000018 479.91800000000006 C 176.78137048966622 480.1463922495133 177.6044425418247 479.87668953150114 178.083 479.242 C 189.42107627155053 463.8148006122476 199.46746328491218 447.47876057806934 208.12000000000003 430.3999999999998 C 208.36048237779733 429.92595497301363 208.38665596651833 429.37167068785607 208.19191334283565 428.8770741126934 C 207.99717071915293 428.38247753753063 207.600121770519 427.9948330381399 207.101 427.81199999999995 C 191.25858155706672 421.75033614340214 175.92127022715732 414.443144539397 161.233 405.959 C 160.69114567511556 405.64046293103024 160.3437110850309 405.07280207502833 160.3065779464476 404.4453523928046 C 160.2694448078643 403.81790271058077 160.54749914202867 403.213224755735 161.048 402.83299999999997 C 164.13 400.52399999999994 167.214 398.12199999999996 170.157 395.69599999999997 C 170.69031696297898 395.25674939076436 171.4264454989605 395.15756575644264 172.05700000000002 395.44 C 268.286 439.35699999999997 372.467 439.35699999999997 467.557 395.44 C 468.1894747138607 395.13935069687335 468.9385743652357 395.2300680662966 469.481 395.673 C 472.425 398.099 475.508 400.524 478.613 402.833 C 479.116177188747 403.2093245624069 479.3986260496762 403.81173127771586 479.3661071147951 404.4392262804212 C 479.33358817991405 405.06672128312664 478.99038207134817 405.636704420362 478.451 405.959 C 463.79613008909354 414.514513360032 448.44491554328295 421.8171286037681 432.56100000000004 427.78900000000004 C 432.0621213222092 427.97884465001874 431.66780439893057 428.3723184997109 431.4768924105159 428.87078970146143 C 431.2859804221013 429.369260903212 431.31657244657515 429.92547276429923 431.56100000000004 430.4 C 440.3583999382797 447.38378276618835 450.38999276079056 463.6992423394164 461.57499999999993 479.2149999999998 C 462.04056309492245 479.86772046280083 462.87135288880245 480.1496171451644 463.63800000000003 479.91499999999996 C 516.5222678327101 463.7330926452871 566.256931004871 438.6442476541274 610.7 405.72900000000004 C 611.137773818533 405.40950458372146 611.4165636722047 404.91679362664416 611.465 404.377 C 623.729 277.594 590.933 167.465 524.531 69.836 Z M 222.491 337.58 C 193.519 337.58 169.64700000000002 310.993 169.64700000000002 278.341 C 169.64700000000002 245.68900000000002 193.056 219.1 222.491 219.1 C 252.156 219.1 275.797 245.92 275.334 278.339 C 275.334 310.993 251.924 337.58 222.491 337.58 Z M 417.871 337.58 C 388.9 337.58 365.02799999999996 310.993 365.02799999999996 278.341 C 365.02799999999996 245.68900000000002 388.437 219.1 417.871 219.1 C 447.538 219.1 471.178 245.92 470.715 278.339 C 470.715 310.993 447.538 337.58 417.871 337.58 Z" stroke-linecap="round" />
</g>
</svg>