<?xml version="1.0" standalone="no"?>
<!DOCTYPE svg PUBLIC "-//W3C//DTD SVG 20010904//EN"
 "http://www.w3.org/TR/2001/REC-SVG-20010904/DTD/svg10.dtd">
<svg version="1.0" xmlns="http://www.w3.org/2000/svg"
 width="300.000000pt" height="300.000000pt" viewBox="0 0 300.000000 300.000000"
 preserveAspectRatio="xMidYMid meet">

<g transform="translate(0.000000,300.000000) scale(0.100000,-0.100000)"
fill="#000000" stroke="none">
<path d="M0 1500 l0 -1500 1500 0 1500 0 0 1500 0 1500 -1500 0 -1500 0 0
-1500z m844 892 c67 -63 132 -126 146 -140 33 -34 100 -85 105 -80 4 4 -32
167 -72 325 -17 71 -17 78 -2 78 6 0 19 -22 30 -49 15 -40 63 -144 77 -165 1
-3 28 7 58 23 31 15 59 24 63 21 3 -4 -16 -25 -42 -48 -42 -38 -47 -47 -49
-87 -1 -51 18 -164 33 -192 5 -10 14 -18 20 -18 17 0 204 -183 209 -205 4 -12
17 -22 35 -25 l30 -6 -2 -74 c-1 -41 -9 -108 -17 -150 -25 -126 -34 -190 -46
-320 -6 -69 -15 -175 -21 -236 -12 -129 -10 -226 4 -236 6 -3 12 -43 13 -88 2
-58 -1 -79 -8 -72 -6 6 -11 27 -12 47 -1 20 -8 40 -16 45 -10 6 -20 52 -33
142 -20 144 -22 210 -7 238 6 10 10 40 10 67 0 70 18 183 34 214 8 15 11 31 8
34 -3 3 -5 23 -3 45 4 56 -11 78 -48 72 -17 -2 -36 -10 -42 -18 -6 -8 -15 -14
-19 -14 -14 0 4 111 26 164 5 15 4 17 -6 11 -8 -5 -17 -2 -24 6 -6 8 -22 22
-36 31 -14 10 -44 31 -68 48 -23 16 -45 30 -48 30 -3 0 -37 21 -75 48 -60 41
-69 51 -69 78 0 18 6 46 13 63 l13 32 39 -31 c21 -16 43 -30 48 -30 6 0 23
-12 38 -26 26 -24 138 -78 147 -70 1 2 -17 21 -42 41 -26 21 -46 43 -46 51 0
7 -36 48 -80 90 -44 43 -80 85 -80 95 0 11 -5 16 -13 14 -18 -8 -477 461 -477
487 0 13 156 -121 304 -260z m-359 97 c59 -43 279 -239 351 -313 16 -17 48
-44 70 -61 78 -58 77 -57 69 -124 -4 -36 -12 -61 -18 -61 -31 1 -107 93 -107
130 0 22 -1 22 -13 6 -11 -16 -15 -14 -52 16 -22 18 -49 39 -60 45 -111 69
-213 127 -249 143 -46 19 -316 178 -316 185 0 12 77 -13 170 -56 58 -27 134
-59 170 -72 36 -14 73 -28 83 -32 33 -14 16 11 -70 100 -144 150 -243 282
-138 184 25 -24 74 -64 110 -90z m1965 22 c0 -4 -27 -35 -60 -67 -33 -32 -60
-63 -60 -69 0 -5 -45 -59 -100 -118 -55 -60 -100 -115 -100 -123 0 -19 -117
-157 -141 -166 -9 -4 -22 -22 -29 -42 -6 -19 -20 -38 -31 -41 -10 -4 -19 -13
-19 -21 0 -8 -5 -23 -12 -34 -17 -27 1 -40 19 -12 9 12 20 22 25 22 5 0 21 14
35 30 13 17 31 30 38 30 7 0 18 6 24 14 33 39 247 190 313 220 42 19 111 57
154 84 105 65 200 117 249 137 l40 16 -36 -33 c-37 -34 -160 -128 -275 -209
-70 -51 -120 -97 -112 -104 5 -5 183 31 198 40 5 3 11 1 14 -3 9 -14 -31 -29
-159 -62 -66 -16 -133 -36 -150 -43 -93 -43 -126 -62 -179 -105 -85 -69 -169
-131 -186 -139 -8 -3 -31 -20 -50 -37 -19 -17 -46 -39 -59 -48 -24 -17 -24
-17 -8 -60 22 -57 23 -122 2 -114 -8 3 -16 0 -16 -7 -1 -7 -2 -23 -3 -37 -3
-37 -28 -133 -39 -147 -5 -7 -14 -13 -20 -13 -16 0 0 146 22 188 28 56 29 93
3 127 -22 28 -24 29 -50 13 -58 -34 -64 -91 -16 -153 25 -33 25 -37 19 -137
-3 -57 -12 -128 -20 -158 -7 -30 -19 -98 -25 -150 -17 -146 -48 -287 -76 -341
-13 -27 -25 -49 -27 -49 -1 0 -2 132 -2 293 0 267 -2 296 -19 321 -13 21 -17
42 -14 82 1 30 1 54 -2 54 -9 0 -39 -149 -50 -250 -21 -198 -58 -348 -46 -190
22 304 61 687 77 774 5 27 9 63 9 81 0 40 29 79 51 70 12 -5 15 -18 13 -58
l-4 -52 18 54 c23 71 50 80 41 15 0 -4 5 -10 12 -15 16 -9 43 26 33 42 -10 16
18 30 33 17 20 -16 63 6 63 33 0 11 12 34 28 49 43 46 62 69 62 79 0 5 26 36
58 68 31 33 81 100 110 149 48 81 147 204 164 204 4 0 -8 -29 -27 -65 -59
-111 -47 -122 42 -37 33 31 89 80 124 107 35 28 75 62 89 77 26 28 40 35 40
19z m-1220 -801 c13 -8 13 -10 -2 -10 -9 0 -20 5 -23 10 -8 13 5 13 25 0z
m-30 -94 c0 -22 -19 -30 -35 -16 -22 18 -18 30 10 30 15 0 25 -6 25 -14z m25
-183 c-4 -38 -9 -70 -11 -72 -8 -9 -33 35 -34 57 0 26 29 82 43 82 5 0 5 -30
2 -67z m58 18 c4 -20 15 -32 35 -39 26 -9 28 -14 27 -53 -1 -24 -5 -66 -9 -94
-3 -27 -8 -67 -11 -88 -8 -66 -22 -77 -29 -21 -4 28 -6 54 -5 60 2 5 -1 24 -5
42 -5 22 -13 32 -24 30 -15 -3 -17 6 -15 62 3 115 23 169 36 101z"/>
<path d="M1967 2113 c-4 -3 -7 -16 -6 -27 0 -19 1 -19 10 3 10 24 8 36 -4 24z"/>
<path d="M1942 2005 c0 -16 2 -22 5 -12 2 9 2 23 0 30 -3 6 -5 -1 -5 -18z"/>
<path d="M1927 1957 c-11 -29 -9 -53 4 -40 6 6 9 21 7 34 -3 21 -4 22 -11 6z"/>
<path d="M1777 1736 c-3 -8 -16 -16 -29 -18 -17 -2 -24 -11 -26 -30 -4 -33 13
-37 28 -8 6 11 16 20 23 20 7 0 17 11 24 25 9 20 8 25 -2 25 -7 0 -15 -6 -18
-14z"/>
<path d="M1512 1529 c2 -6 8 -10 13 -10 5 0 11 4 13 10 2 6 -4 11 -13 11 -9 0
-15 -5 -13 -11z"/>
<path d="M1600 1314 c0 -8 5 -12 10 -9 6 4 8 11 5 16 -9 14 -15 11 -15 -7z"/>
<path d="M1592 1160 c0 -14 2 -19 5 -12 2 6 2 18 0 25 -3 6 -5 1 -5 -13z"/>
</g>
</svg>
