<?xml version="1.0" encoding="UTF-8" standalone="no" ?>
<!DOCTYPE svg PUBLIC "-//W3C//DTD SVG 1.1//EN" "http://www.w3.org/Graphics/SVG/1.1/DTD/svg11.dtd">
<svg xmlns="http://www.w3.org/2000/svg" xmlns:xlink="http://www.w3.org/1999/xlink" version="1.1" width="1080" height="1080" viewBox="0 0 1080 1080" xml:space="preserve">
<desc>Created with Fabric.js 5.2.4</desc>
<defs>
</defs>
<g transform="matrix(1 0 0 1 540 540)" id="6e6f357b-855a-434f-b3de-5258e447ab58"  >
<rect style="stroke: none; stroke-width: 1; stroke-dasharray: none; stroke-linecap: butt; stroke-dashoffset: 0; stroke-linejoin: miter; stroke-miterlimit: 4; fill: rgb(255,255,255); fill-rule: nonzero; opacity: 1; visibility: hidden;" vector-effect="non-scaling-stroke"  x="-540" y="-540" rx="0" ry="0" width="1080" height="1080" />
</g>
<g transform="matrix(1 0 0 1 540 540)" id="4c1475bc-9ba8-48b5-af00-7ca83d4794f3"  >
</g>
<g transform="matrix(1 0 0 1 540 540)" id="c5d445b2-924e-4fd1-845a-c1578d7bb810"  >
<path style="stroke: rgb(0,0,0); stroke-width: 0; stroke-dasharray: none; stroke-linecap: butt; stroke-dashoffset: 0; stroke-linejoin: miter; stroke-miterlimit: 4; fill: rgb(255,255,255); fill-rule: nonzero; opacity: 1;" vector-effect="non-scaling-stroke"  transform=" translate(-248, -256)" d="M 496 256 C 496 393 384.8 504 247.6 504 C 133.8 504 38 427.7 8.599999999999994 323.6 L 103.8 362.90000000000003 C 110.2 395.00000000000006 138.7 419.3 172.7 419.3 C 211.89999999999998 419.3 244.6 386.90000000000003 242.89999999999998 345.8 L 327.4 285.6 C 379.5 286.90000000000003 423.2 244.70000000000002 423.2 192.10000000000002 C 423.2 140.50000000000003 381.2 98.60000000000002 329.5 98.60000000000002 C 277.8 98.60000000000002 235.8 140.60000000000002 235.8 192.10000000000002 L 235.8 193.3 L 176.6 279 C 161.1 278.1 145.9 282.4 133.1 291.1 L 0 236.1 C 10.2 108.4 117.1 8 247.6 8 C 384.8 8 496 119 496 256 z M 155.7 384.3 L 125.19999999999999 371.7 C 130.8047311450762 383.33820667187507 140.48213074602646 392.5175048227764 152.39999999999998 397.5 C 179.29999999999998 408.7 210.2 395.9 221.39999999999998 369.1 C 226.79999999999998 356.1 226.89999999999998 341.8 221.49999999999997 328.8 C 216.09999999999997 315.8 205.99999999999997 305.6 192.99999999999997 300.2 C 180.09999999999997 294.8 166.29999999999998 295 154.09999999999997 299.59999999999997 L 185.59999999999997 312.59999999999997 C 205.39999999999998 320.79999999999995 214.79999999999995 343.49999999999994 206.49999999999997 363.29999999999995 C 198.19999999999996 383.19999999999993 175.49999999999997 392.49999999999994 155.7 384.29999999999995 z M 329.5 254.4 C 295.1 254.4 267.1 226.4 267.1 192.10000000000002 C 267.1 157.80000000000004 295.1 129.8 329.5 129.8 C 363.9 129.8 391.9 157.8 391.9 192.10000000000002 C 391.9 226.40000000000003 364 254.40000000000003 329.5 254.40000000000003 z M 329.6 238.8 C 355.5 238.8 376.5 217.8 376.5 192 C 376.5 166.1 355.5 145.2 329.6 145.2 C 303.70000000000005 145.2 282.70000000000005 166.2 282.70000000000005 192 C 282.80000000000007 217.8 303.80000000000007 238.8 329.6 238.8 z" stroke-linecap="round" />
</g>
</svg>